<svg width="204" height="191" viewBox="0 0 204 191" fill="none" xmlns="http://www.w3.org/2000/svg">
<path d="M60 15H143M60 15L101.5 52M60 15L41.556 52M143 15L101.5 52M143 15L161.5 52M179.5 88L138 152.5M179.5 88L130.5 104.5M179.5 88L161.5 52M138 152.5H101.5M138 152.5C135.226 136.833 130.5 104.5 130.5 104.5M65 152.5L23.5 88.5M65 152.5H101.5M65 152.5L72.7668 104.372M23.5 88.5L41.556 52M23.5 88.5L72.7668 104.372M101.5 52H41.556M101.5 52L72.7668 104.372M101.5 52L130.5 104.5M101.5 52H161.5M101.5 152.5L41.556 52M101.5 152.5L130.5 104.5M101.5 152.5V87M72.7668 104.372L130.5 104.5M130.5 104.5L161.5 52" stroke="#FFFEFE"/>
<path d="M101.5 187L166.147 125.834C166.379 125.615 166.555 125.342 166.66 125.041L200 29.5M101.5 187L35.8764 125.851C35.6295 125.621 35.4448 125.332 35.3396 125.011L4 29.5M101.5 187V87M200 29.5L102.022 3.14051C101.68 3.04849 101.32 3.04895 100.978 3.14185L4 29.5M200 29.5L101.5 87M4 29.5L101.5 87" stroke="#FFFEFE" stroke-width="5"/>
<path d="M101.5 3V87M101.5 87L36 125.5M101.5 87L165.5 125.5" stroke="#FFFEFE" stroke-width="2.5"/>
</svg>
